<?xml version="1.0" encoding="UTF-8" standalone="no"?>
<!DOCTYPE svg PUBLIC "-//W3C//DTD SVG 1.1//EN" "http://www.w3.org/Graphics/SVG/1.1/DTD/svg11.dtd">
<svg width="100%" height="100%" viewBox="0 0 128 128" version="1.1" xmlns="http://www.w3.org/2000/svg" xmlns:xlink="http://www.w3.org/1999/xlink" xml:space="preserve" xmlns:serif="http://www.serif.com/" style="fill-rule:evenodd;clip-rule:evenodd;stroke-linejoin:round;stroke-miterlimit:1.41421;">
    <g transform="matrix(1.06667,0,0,1.06667,5.95964,-6.484)">
        <path d="M0,63.436C16.226,43.434 57.33,44.121 58.916,41.795C59.476,41.413 50.372,31.996 64.096,23.725C64.096,23.725 71.872,18.954 87.468,18.078C86.198,17.303 59.592,-0.872 29.044,16.728C-0.003,33.163 -0.713,64.308 0,63.436" style="fill:rgb(200,234,248);fill-rule:nonzero;"/>
    </g>
    <g transform="matrix(1.06667,0,0,1.06667,108.563,48.0851)">
        <path d="M0,57.217C-30.174,83.872 -59.351,71.173 -72.675,61.728C-77.11,40.671 -72.28,21.795 -51.962,10.219C-33.777,0.921 -12.718,0.328 -12.718,0.328C-12.718,0.328 -15.373,-16.118 0,-26.655C14.788,-14.269 32.39,24.921 0,57.217" style="fill:rgb(6,102,158);fill-rule:nonzero;"/>
    </g>
    <g transform="matrix(1.06667,0,0,1.06667,108.563,113.928)">
        <path d="M0,-88.383C0,-88.383 -20.944,-82.307 -18.702,-63.803C-18.702,-63.803 -45.194,-64.64 -62.812,-53.557C-79.86,-43.39 -85.36,-28.557 -83.603,-10.391C-78.027,-3.39 -72.675,0 -72.675,0C-72.675,0 -77.427,-16.354 -70.502,-31.94C-68.478,-36.493 -65.458,-40.982 -61.031,-44.977C-40.944,-60.39 -21.075,-60.16 -12.718,-61.4C-14.111,-72.89 -7.556,-83.959 0,-88.383" style="fill:white;fill-rule:nonzero;"/>
    </g>
    <g transform="matrix(1.06667,0,0,1.06667,22.6237,8.89755)">
        <path d="M0,102.924C0,102.924 -18.173,89.432 -20.858,70.427C-26.827,28.005 45.171,30.03 43.27,27.203C34.616,14.292 48.563,0 95.368,4.131C97.739,4.35 79.929,9.125 72.17,14.292C59.463,22.789 61.866,34.663 61.866,34.663C61.866,34.663 -20.874,31.899 0,102.924" style="fill:rgb(255,187,0);fill-rule:nonzero;"/>
    </g>
</svg>